# xmcd
#
# Track frame offsets:
#	150
#	12600
#	21058
#	36749
#	51109
#	61885
#	75668
#	91490
#	102601
#	115975
#	127303
#	140756
#	148888
#	164163
#	173128
#
# Disc length: 2462 seconds
#
# Revision: 1
# Processed by: cddbd v1.5PL3 Copyright (c) Steve Scherf et al.
# Submitted via: audiograbber 1.83.01
#
DISCID=ea099c0f
DTITLE=Various Artist - Верка Смердючка против Руки в брюки.
DYEAR=2003
DGENRE=
TTITLE0=Верка Смердючка. - Пыво.
TTITLE1=Руки в брюки. - Девченки.
TTITLE2=Верка Смердючка. - Почему я бэз баяна.
TTITLE3=Руки в брюки. - Повестка.
TTITLE4=Верка Смердючка. - Собака пся.
TTITLE5=Руки в брюки. - Зухра и кальян.
TTITLE6=Верка Смердючка. - Сало.
TTITLE7=Руки в брюки. - Я 2002-й.
TTITLE8=Верка Смердючка. - Дай похмэлытыся
TTITLE9=Руки в брюки. - Жили у бабуси.
TTITLE10=Верка Смердючка. - Свадебная.
TTITLE11=Руки в брюки. - Я уколов не боюсь.
TTITLE12=Верка Смердючка. - Я шла, шла, шла.
TTITLE13=Руки в брюки. - Две дорожки белой пудры.
TTITLE14=Реклама. - Реклама.
EXTD=
EXTT0=
EXTT1=
EXTT2=
EXTT3=
EXTT4=
EXTT5=
EXTT6=
EXTT7=
EXTT8=
EXTT9=
EXTT10=
EXTT11=
EXTT12=
EXTT13=
EXTT14=
PLAYORDER=
